<svg width="400" height="410" viewBox="0 0 400 410" fill="none" xmlns="http://www.w3.org/2000/svg">
<path d="M366.969 84.9078C346.148 56.1433 314.903 37.0461 285.381 18.2862C259.681 3.24733 229.631 0.0188453 200.383 0.310685C181.897 0.566045 163.091 2.72749 145.754 9.52189C117.528 21.6241 91.8003 39.0342 70.2224 60.9131C56.6974 74.4563 42.1237 87.6894 31.6721 104.315C16.4326 127.124 3.55519 152.35 1.45759 180.13C-1.56113 232.971 4.80463 291.503 42.7256 331.631C54.9646 344.499 69.7117 354.367 84.6502 363.788C99.7986 373.638 115.348 382.968 131.509 391.039C159.234 404.391 190.515 408.212 220.949 409.607C245.855 410.793 269.941 400.952 290.863 388.157C305.765 378.307 318.159 365.247 330.899 352.844C358.706 327.418 380.129 301.453 391.629 264.9C397.913 246.432 399.053 226.924 398.661 207.572C401.47 164.562 393.399 119.901 366.96 84.8987L366.969 84.9078ZM359.226 291.403C334.42 353.255 270.552 388.431 205.08 382.876C160.857 382.876 112.366 375.681 80.7377 341.855C56.5333 316.729 26.0269 269.661 19.5517 235.315C15.6757 203.03 22.5157 170.116 34.016 139.965C40.7922 121.579 47.6504 102.528 62.4066 88.8933C80.3365 70.7445 102.106 57.1648 123.83 44.0593C145.526 29.9963 169.731 24.4149 195.367 23.8312C196.735 24.9438 198.413 25.6369 200.383 25.646C209.147 25.7008 217.912 26.1932 226.676 26.2844C246.01 26.6036 266.12 26.6584 284.296 34.0364C329.978 54.6568 362.819 107.817 377.384 154.302C390.489 200.267 375.824 248.284 359.226 291.394V291.403Z" fill="#007BFF" stroke="#007BFF" stroke-width="0.008"/>
<path d="M326.485 121.151C315.587 107.288 302.472 95.4323 288.783 84.3971C269.613 67.3336 249.066 56.8 223.083 55.4593C217.237 54.8483 211.391 54.2464 205.545 53.6992C202.782 53.5897 200.137 55.3043 198.495 57.4293C176.334 57.1009 154.911 65.3819 136.99 78.086C116.78 91.6019 98.0019 107.854 85.2157 128.784C80.8928 136.308 77.2813 144.215 74.1896 152.35C73.0678 154.129 72.3018 156.162 72.0555 158.214C67.6232 171.046 64.3856 184.352 61.7317 197.549C58.2387 216.135 57.3267 235.689 64.7595 253.473C73.077 276.765 91.5906 294.112 109.776 310.008C134.409 333.893 153.497 345.895 188.837 346.925C212.804 346.925 238.213 346.588 259.763 334.823C274.72 326.378 289.112 316.72 302.509 305.977C316.572 294.257 326.522 278.562 335.076 262.575C347.507 240.459 349.194 214.567 348.793 189.715C349.65 164.626 342.163 140.841 326.485 121.151ZM123 113.608C139.088 100.649 156.051 87.2334 176.817 83.1841C197.975 78.4052 219.626 82.2356 240.912 83.9684C268.072 86.4582 301.077 105.391 316.07 128.292C318.87 132.788 321.26 137.548 323.266 142.473C297.821 135.278 271.1 135.843 244.962 133.043C228.591 132.076 212.294 129.651 195.86 130.252C184.186 130.617 172.667 132.76 161.03 133.691C140.036 135.579 118.96 136.81 98.3394 141.507C96.8437 141.817 95.3298 142.145 93.8158 142.491C96.0685 139.099 98.6038 135.861 101.449 132.824C107.997 125.729 115.312 119.436 122.982 113.599L123 113.608ZM77.9197 217.914C77.8832 217.23 77.8558 216.546 77.8285 215.862C83.7017 218.032 89.8213 219.61 95.4939 222.264C128.344 242.419 158.422 274.795 163.556 314.157C147.131 310.272 131.673 304.098 118.786 291.759C97.3635 272.962 80.9566 246.615 77.9197 217.923V217.914ZM188.381 318.69C184.633 318.124 180.894 317.541 177.182 316.902C175.932 306.387 175.54 295.635 172.321 285.475C165.809 262.027 150.934 242.492 133.634 225.848C120.893 213.71 107.605 200.595 90.1587 195.862C86.7661 195.305 82.3702 193.089 78.2298 192.022C78.932 183.741 80.2909 175.497 82.5344 167.581C85.3798 166.796 88.3074 165.401 90.9704 165.109C111.8 160.494 132.895 157.567 154.072 155.141C193.744 151.119 234.236 144.534 273.79 152.697C292.194 155.871 309.203 164.161 326.741 170.317C327.917 170.754 329.066 170.937 330.17 170.919C330.416 181.042 329.923 191.174 329.084 201.288C321.615 200.449 310.206 206.76 304.734 208.976C279.782 221.379 257.036 240.039 242.7 264.161C233.671 279.793 228.272 297.221 226.092 315.097C225.974 317.495 225.244 320.578 224.651 323.751C212.504 322.73 200.41 320.414 188.372 318.69H188.381ZM304.98 277.668C292.623 298.845 268.09 320.687 243.156 324.052C241.56 324.153 239.964 324.208 238.377 324.244C239.535 317.851 240.812 311.476 242.937 305.329C247.068 293.665 252.741 282.465 259.189 271.923C266.512 261.061 276.562 252.378 287.123 244.772C297.684 237.367 309.13 231.302 321.086 226.478C322.91 225.629 324.825 225 326.732 224.371C326.586 225.62 326.449 226.87 326.303 228.119C323.731 246.241 314.274 262.246 304.98 277.677V277.668Z" fill="#007BFF" stroke="#007BFF" stroke-width="0.008"/>
<path d="M225.8 193.472C210.816 193.144 195.704 191.566 180.757 192.943C171.409 193.655 165.198 207.563 173.023 213.792C174.464 214.749 175.96 214.913 177.62 214.813C180.83 214.74 184.779 214.986 188.691 215.114C199.763 215.424 210.835 215.661 221.897 216.19C233.087 216.436 238.651 195.141 225.8 193.463V193.472Z" fill="#007BFF" stroke="#007BFF" stroke-width="0.008"/>
</svg>
